<?xml version="1.0" standalone="no"?>
<!DOCTYPE svg PUBLIC "-//W3C//DTD SVG 20010904//EN"
 "http://www.w3.org/TR/2001/REC-SVG-20010904/DTD/svg10.dtd">
<svg version="1.0" xmlns="http://www.w3.org/2000/svg"
 width="254.000000pt" height="254.000000pt" viewBox="0 0 254.000000 254.000000"
 preserveAspectRatio="xMidYMid meet">
<metadata>
Created by potrace 1.14, written by Peter Selinger 2001-2017
</metadata>
<g transform="translate(0.000000,254.000000) scale(0.100000,-0.100000)"
fill="#000000" stroke="none">
<path d="M634 2524 c-197 -40 -358 -178 -429 -369 -13 -34 -27 -81 -31 -106
-11 -64 -12 -1969 -1 -2001 5 -15 16 -29 25 -31 10 -3 131 -4 270 -3 230 1
255 3 267 19 10 14 13 161 13 709 1 380 3 693 6 695 6 6 61 -36 181 -138 224
-191 419 -435 604 -759 74 -128 199 -379 242 -484 l24 -58 65 6 c219 20 400
167 489 395 l26 66 3 1015 c3 981 2 1016 -16 1030 -16 13 -60 15 -280 15 -182
0 -265 -4 -273 -12 -8 -8 -11 -201 -12 -717 0 -388 -1 -706 -3 -706 -11 0
-173 139 -244 209 -245 244 -493 611 -736 1092 -83 164 -73 157 -190 133z"/>
</g>
</svg>
